<svg xmlns="http://www.w3.org/2000/svg" xmlns:xlink="http://www.w3.org/1999/xlink" width="1338" height="656" viewBox="0 0 1338 656"><defs><style>.a,.d{fill:#333;font-size:35px;}.a,.h{font-family:HelveticaNeue-Medium, Helvetica Neue;font-weight:500;}.b{fill:#fff;}.c,.h{fill:#5e6972;}.d{font-family:HelveticaNeue-Bold, Helvetica Neue;font-weight:700;}.e{fill:#4c9bde;}.f{fill:#666;font-size:26px;font-family:HelveticaNeue-Light, Helvetica Neue;font-weight:300;}.g{fill:none;}.h{font-size:60px;}.i{filter:url(#c);}.j{filter:url(#a);}</style><filter id="a" x="790" y="60" width="548" height="518" filterUnits="userSpaceOnUse"><feOffset dy="3" input="SourceAlpha"/><feGaussianBlur stdDeviation="3" result="b"/><feFlood flood-opacity="0.161"/><feComposite operator="in" in2="b"/><feComposite in="SourceGraphic"/></filter><filter id="c" x="0" y="60" width="548" height="518" filterUnits="userSpaceOnUse"><feOffset dy="3" input="SourceAlpha"/><feGaussianBlur stdDeviation="3" result="d"/><feFlood flood-opacity="0.161"/><feComposite operator="in" in2="d"/><feComposite in="SourceGraphic"/></filter></defs><g transform="translate(-130 -281)"><g transform="translate(-152 24)"><text class="a" transform="translate(1102 905)"><tspan x="-56.735" y="0">Draw:1</tspan></text><text class="a" transform="translate(950 905)"><tspan x="-54.792" y="0">Lost: 0</tspan></text><text class="a" transform="translate(799 905)"><tspan x="-56.087" y="0">Won: 0</tspan></text></g><g transform="translate(800 57)"><g class="j" transform="matrix(1, 0, 0, 1, -670, 224)"><rect class="b" width="530" height="500" rx="17" transform="translate(799 66)"/></g><g transform="translate(-120 27)"><g transform="translate(22 -172)"><g transform="translate(411.03 558.806)"><path class="c" d="M282.092,677.977v-35.76a17.8,17.8,0,0,0-35.606,0V676.99h31.4A9.481,9.481,0,0,1,282.092,677.977Z" transform="translate(-161.206 -624.414)"/><path class="c" d="M246.947,676.019V639.9a14.88,14.88,0,1,0-29.76,0v44.513a37.654,37.654,0,0,1,23.722-8.39Z" transform="translate(-208.434 -623.444)"/><path class="c" d="M356.641,678.423a21.913,21.913,0,0,1-18.957-10.965,33.232,33.232,0,0,1-30.792,20.836H284.625a36.581,36.581,0,0,1,17.542,31.22v10.027a2.679,2.679,0,0,1-5.357,0V719.514a31.256,31.256,0,0,0-31.221-31.22h-.478a2.68,2.68,0,0,1-2.677-2.68h0a2.678,2.678,0,0,1,2.677-2.677h41.781a27.863,27.863,0,0,0,27.83-27.833V650.8a4.209,4.209,0,0,0-4.205-4.2H246.31a32.409,32.409,0,0,0-24.738,11.469c-.449.528-.888,1.066-1.3,1.622-.17.227-.332.462-.5.695-.407.577-.8,1.162-1.17,1.763-.12.2-.232.4-.347.6-.376.645-.731,1.3-1.06,1.964-.055.11-.115.217-.167.327-.374.776-.708,1.57-1.019,2.372-.039.1-.084.206-.123.311-.3.815-.572,1.646-.81,2.481-.031.107-.063.214-.091.318q-.345,1.265-.588,2.555c-.021.11-.039.222-.06.334-.152.865-.274,1.737-.355,2.617-.01.1-.016.2-.023.306-.078.909-.125,1.826-.125,2.745,0,2.2.112,4.383.285,6.546a81.948,81.948,0,0,0,81.568,75.307h9.737a67.856,67.856,0,0,0,67.78-67.777V670.82A21.863,21.863,0,0,1,356.641,678.423Z" transform="translate(-213.836 -588.661)"/><path class="c" d="M266.685,642.439a18.026,18.026,0,0,0-36.053,0V676.99h36.053Z" transform="translate(-186.762 -624.414)"/><path class="c" d="M278.731,634.407a16.583,16.583,0,0,0-16.562,16.562v25.179a16.564,16.564,0,0,0,33.127,0V650.969A16.583,16.583,0,0,0,278.731,634.407Z" transform="translate(-135.926 -608.306)"/></g></g></g><text class="d" transform="translate(394 258)"><tspan x="-17.15" y="0">AI</tspan></text></g><g transform="translate(10 57)"><g class="i" transform="matrix(1, 0, 0, 1, 120, 224)"><rect class="b" width="530" height="500" rx="17" transform="translate(9 66)"/></g><g transform="translate(-120 27)"><g transform="translate(5 103)"><g transform="translate(242 70)"><circle class="e" cx="30" cy="30" r="30" transform="translate(317 490)"/><g transform="translate(334.015 498.955)"><path class="b" d="M456.034,619.45h4.586v-5.032a3.7,3.7,0,0,1,1.163-2.693l1.757-12.5a2.6,2.6,0,1,0-5.157-.725l-2.431,16.7a.459.459,0,0,1-.909,0L452.6,598.449a2.6,2.6,0,1,0-5.158.723c.674,5.028,1.184,8.615,1.556,11.235.944,6.635,1.1,7.764,1.131,12.459A6.818,6.818,0,0,1,456.034,619.45Z" transform="translate(-447.418 -596.204)"/><path class="b" d="M474.2,654.855a3.714,3.714,0,0,1-3.1-1.668,5.14,5.14,0,0,1-4.808,3.34h-1.842a5.9,5.9,0,0,1,2.743,4.978v1.608a.459.459,0,1,1-.918,0v-1.608a4.984,4.984,0,0,0-4.979-4.978.459.459,0,0,1-.459-.459h0a.459.459,0,0,1,.459-.459h5a4.215,4.215,0,0,0,4.208-4.118c0-.032,0-.063,0-.095a1.221,1.221,0,0,0-.019-.191c0-.014,0-.03,0-.044a1.226,1.226,0,0,0-1.2-.99h-9.9a5.9,5.9,0,0,0-5.9,5.9h0A12.06,12.06,0,0,0,457.21,665a11.809,11.809,0,0,0,8.819,3.142A12,12,0,0,0,477,655.994v-2.417A3.705,3.705,0,0,1,474.2,654.855Z" transform="translate(-450.771 -626.007)"/><path class="b" d="M496.3,637.2a2.8,2.8,0,0,0-2.8,2.8v3.94a2.2,2.2,0,0,1,.022.295c0,.023,0,.047,0,.07a2.8,2.8,0,0,0,5.575-.327V640A2.8,2.8,0,0,0,496.3,637.2Z" transform="translate(-472.868 -618.844)"/><path class="b" d="M480.847,630.786c-.041.014-.081.028-.121.044s-.08.033-.119.051-.082.038-.122.059l-.106.056c-.043.025-.086.051-.128.078l-.089.058c-.045.031-.088.065-.131.1-.025.019-.05.038-.075.059a2.793,2.793,0,0,0-1,2.143v5.032h4.393a2.131,2.131,0,0,1,1.2.37v-5.4a2.8,2.8,0,0,0-2.512-2.783c-.094-.009-.189-.014-.286-.014s-.179,0-.267.013c-.035,0-.07.009-.106.014-.051.007-.1.013-.153.023s-.084.018-.125.028-.086.021-.128.033S480.889,630.771,480.847,630.786Z" transform="translate(-464.833 -615.217)"/></g></g><g transform="translate(162 70)"><circle class="e" cx="30" cy="30" r="30" transform="translate(317 490)"/><path class="b" d="M347.271,609.5a2.076,2.076,0,0,0-2.074,2.074v9.917a.459.459,0,0,1-.918,0V606.7a2.434,2.434,0,0,0-2.431-2.431,2.4,2.4,0,0,0-1.755.722,2.458,2.458,0,0,0-.677,1.719v14.781a.459.459,0,0,1-.918,0v-14.6a2.627,2.627,0,0,0-2.624-2.624,2.688,2.688,0,0,0-2.624,2.789v14.433a.459.459,0,0,1-.918,0v-11.82a2.434,2.434,0,0,0-2.431-2.431,2.492,2.492,0,0,0-2.432,2.586v17.937h5.4a7.406,7.406,0,0,1,5.608,2.568.459.459,0,1,1-.695.6,6.489,6.489,0,0,0-4.913-2.25h-5.859a.459.459,0,0,1-.061-.006l-.023,0a.456.456,0,0,1-.11-.036l-.024-.013a.463.463,0,0,1-.085-.059l-.012-.008-2.277-2.139a4.324,4.324,0,0,0-6.033.084,1.126,1.126,0,0,0-.034,1.566l8.622,9.355a14.8,14.8,0,0,0,12.132,5.4,10.307,10.307,0,0,0,10.242-10.348V611.679A2.086,2.086,0,0,0,347.271,609.5Z" transform="translate(13.279 -103.525)"/></g><g transform="translate(82 70)"><circle class="e" cx="30" cy="30" r="30" transform="translate(317 490)"/><g transform="translate(333.119 505.224)"><path class="b" d="M252.59,633.6v-6.13a3.052,3.052,0,0,0-6.1,0v5.961h5.383A1.624,1.624,0,0,1,252.59,633.6Z" transform="translate(-231.867 -624.414)"/><path class="b" d="M222.289,633.759v-6.193a2.551,2.551,0,1,0-5.1,0V635.2a6.455,6.455,0,0,1,4.067-1.438Z" transform="translate(-215.687 -624.746)"/><path class="b" d="M238.317,652.05a3.756,3.756,0,0,1-3.25-1.88,5.7,5.7,0,0,1-5.279,3.572h-3.817a6.271,6.271,0,0,1,3.007,5.352v1.719a.459.459,0,0,1-.918,0v-1.719a5.358,5.358,0,0,0-5.352-5.352h-.082a.459.459,0,0,1-.459-.459h0a.459.459,0,0,1,.459-.459h7.162a4.776,4.776,0,0,0,4.771-4.771v-.738a.722.722,0,0,0-.721-.72H219.4a5.556,5.556,0,0,0-4.241,1.966c-.077.091-.152.183-.223.278-.029.039-.057.079-.085.119-.07.1-.137.2-.2.3-.021.034-.04.068-.06.1-.064.111-.125.223-.182.337-.009.019-.02.037-.029.056-.064.133-.121.269-.175.407l-.021.053c-.052.14-.1.282-.139.425l-.016.055q-.059.217-.1.438c0,.019-.007.038-.01.057-.026.148-.047.3-.061.449,0,.017,0,.035,0,.052-.013.156-.021.313-.021.471,0,.378.019.751.049,1.122a14.048,14.048,0,0,0,13.983,12.91h1.669a11.632,11.632,0,0,0,11.619-11.619v-3.827A3.748,3.748,0,0,1,238.317,652.05Z" transform="translate(-213.836 -636.663)"/><path class="b" d="M236.812,627.5a3.09,3.09,0,0,0-6.18,0v5.923h6.18Z" transform="translate(-223.111 -624.414)"/><path class="b" d="M265.008,634.407a2.843,2.843,0,0,0-2.839,2.839v4.316a2.839,2.839,0,0,0,5.679,0v-4.316A2.843,2.843,0,0,0,265.008,634.407Z" transform="translate(-240.527 -629.932)"/></g></g><text class="f" transform="translate(509 537)"><tspan x="-62.14" y="0">Play Again:</tspan></text></g><g transform="translate(22 -152)"><g transform="translate(411.03 538.806)"><path class="c" d="M282.092,677.977v-35.76a17.8,17.8,0,0,0-35.606,0V676.99h31.4A9.481,9.481,0,0,1,282.092,677.977Z" transform="translate(-161.206 -624.414)"/><path class="c" d="M246.947,676.019V639.9a14.88,14.88,0,1,0-29.76,0v44.513a37.654,37.654,0,0,1,23.722-8.39Z" transform="translate(-208.434 -623.444)"/><path class="c" d="M356.641,678.423a21.913,21.913,0,0,1-18.957-10.965,33.232,33.232,0,0,1-30.792,20.836H284.625a36.581,36.581,0,0,1,17.542,31.22v10.027a2.679,2.679,0,0,1-5.357,0V719.514a31.256,31.256,0,0,0-31.221-31.22h-.478a2.68,2.68,0,0,1-2.677-2.68h0a2.678,2.678,0,0,1,2.677-2.677h41.781a27.863,27.863,0,0,0,27.83-27.833V650.8a4.209,4.209,0,0,0-4.205-4.2H246.31a32.409,32.409,0,0,0-24.738,11.469c-.449.528-.888,1.066-1.3,1.622-.17.227-.332.462-.5.695-.407.577-.8,1.162-1.17,1.763-.12.2-.232.4-.347.6-.376.645-.731,1.3-1.06,1.964-.055.11-.115.217-.167.327-.374.776-.708,1.57-1.019,2.372-.039.1-.084.206-.123.311-.3.815-.572,1.646-.81,2.481-.031.107-.063.214-.091.318q-.345,1.265-.588,2.555c-.021.11-.039.222-.06.334-.152.865-.274,1.737-.355,2.617-.01.1-.016.2-.023.306-.078.909-.125,1.826-.125,2.745,0,2.2.112,4.383.285,6.546a81.948,81.948,0,0,0,81.568,75.307h9.737a67.856,67.856,0,0,0,67.78-67.777V670.82A21.863,21.863,0,0,1,356.641,678.423Z" transform="translate(-213.836 -588.661)"/><path class="c" d="M266.685,642.439a18.026,18.026,0,0,0-36.053,0V676.99h36.053Z" transform="translate(-186.762 -624.414)"/><path class="c" d="M278.731,634.407a16.583,16.583,0,0,0-16.562,16.562v25.179a16.564,16.564,0,0,0,33.127,0V650.969A16.583,16.583,0,0,0,278.731,634.407Z" transform="translate(-135.926 -608.306)"/></g></g></g><text class="d" transform="translate(394 258)"><tspan x="-30.8" y="0">You</tspan></text></g><rect class="g" width="260" height="500" transform="translate(669 347)"/><text class="h" transform="translate(799 605)"><tspan x="-90.36" y="0">DRAW</tspan></text></g></svg>